<svg xmlns="http://www.w3.org/2000/svg" xmlns:xlink="http://www.w3.org/1999/xlink" id="Capa_1" data-name="Capa 1" viewBox="0 0 64.5 64.5"><defs><style>.cls-1{fill:none;}.cls-2{fill:#1f2936;}.cls-3{clip-path:url(#clip-path);}.cls-4{fill:#fff;}.cls-5{fill:#84bd2f;}</style><clipPath id="clip-path"><circle class="cls-1" cx="32.4" cy="31.09" r="31.09"></circle></clipPath></defs><title>ICON</title><circle class="cls-2" cx="32.1" cy="31.21" r="31.09"></circle><g class="cls-3"><path class="cls-4" d="M47,10.91c-2.9,0-5.92,7.38-5.92,7.38S31.5,41,22.57,41C12.38,41,7.3,18.81,4.06,13l0,.09C.78,19.67,1.37,26.32,1.16,33.17c4,8.32,11,18.24,21.54,18.24C39.83,51.41,48.52,10.91,47,10.91Z"></path><path class="cls-4" d="M30.68,16.07c0,4.64-3.1,8.26-7,8.41-3.89,0-7-3.77-7-8.41s3.15-8.4,7-8.4,7,3.76,7,8.4"></path><path class="cls-5" d="M38.08,61.18l-2.44-8.39a13.14,13.14,0,0,1,3.3-12.43l13.5-14a.54.54,0,0,0-.22-.89,23.1,23.1,0,0,1-7.55-4.21L39.54,17,32.71,29.58c-.2.36-.39.73-.59,1.11-1.68,3.19-3.59,6.8-7.48,7.84a8.82,8.82,0,0,1-2.11.28A8.52,8.52,0,0,1,15.32,35l-4.15-6.17A46.66,46.66,0,0,1,6.38,19.6L5,15.93l.73-.29,1.42,3.67a45.94,45.94,0,0,0,4.71,9.07L16,34.55A7.69,7.69,0,0,0,22.37,38h.14a8.41,8.41,0,0,0,1.93-.26c3.55-.95,5.29-4.25,7-7.44L32,29.2,39.3,15.74l5.87,4.9a22.59,22.59,0,0,0,7.3,4.06,1.36,1.36,0,0,1,.88.95A1.32,1.32,0,0,1,53,26.89l-13.5,14A12.35,12.35,0,0,0,36.4,52.59L38.84,61Z"></path><polyline class="cls-5" points="10.58 27.75 12.21 65.38 15.15 66.42 16.62 36.02"></polyline><polyline class="cls-5" points="26.18 37.63 28.39 66.42 32.06 65.38 32.06 30.85"></polyline></g></svg>