<svg xmlns="http://www.w3.org/2000/svg" xmlns:xlink="http://www.w3.org/1999/xlink" id="Capa_1" data-name="Capa 1" viewBox="0 0 64.5 64.5"><defs><style>.cls-1{fill:none;}.cls-2{fill:#1f2936;}.cls-3{clip-path:url(#clip-path);}.cls-4{clip-path:url(#clip-path-2);}.cls-5{fill:#fff;}.cls-6{fill:#84bd2f;}</style><clipPath id="clip-path"><circle class="cls-1" cx="32.2" cy="32.75" r="31.75"></circle></clipPath><clipPath id="clip-path-2"><polygon class="cls-1" points="66.96 62.37 -3 66.71 -2.46 20.02 67.5 20.02 66.96 62.37"></polygon></clipPath></defs><title>ICON</title><circle class="cls-2" cx="32.16" cy="32.48" r="31.75"></circle><g class="cls-3"><g class="cls-4"><path class="cls-5" d="M9.9,28c3.56-.82,9.08,32.89,22.38,32.89,10,0,20.69-25.45,20.69-25.45s3.39-8.26,6.63-8.26c1.76,0-8,45.37-27.18,45.37C12.79,72.52,4.17,42,3.71,39.72S6.34,28.8,9.9,28Z"></path><path class="cls-5" d="M41.37,32.93c0,5.2-3.48,9.26-7.88,9.42-4.36,0-7.88-4.22-7.88-9.42s3.52-9.41,7.88-9.41,7.88,4.21,7.88,9.41"></path></g></g><path class="cls-6" d="M44.2,16.86,38,22.6a.47.47,0,0,0-.13.62c.39.94.77,1.89,1.13,2.84a.61.61,0,0,1,0,.48A11.82,11.82,0,0,1,24.8,32.17a.61.61,0,0,1-.31-.32c-.4-1-.79-1.93-1.16-2.91a.42.42,0,0,0-.51-.33,9.2,9.2,0,0,1-.93,0c.22.55.42,1.06.64,1.57,0,.06.14.1.23.12a1.35,1.35,0,0,1,.88,2.2.56.56,0,0,0,0,.44c.34.91.71,1.81,1.07,2.72l.13.33-.93.37-.7-1.76c-.18-.44-.34-.89-.54-1.32A.59.59,0,0,0,22.3,33a1.38,1.38,0,0,1-.84-2.16.54.54,0,0,0,.05-.43c-.18-.51-.4-1-.59-1.52a.37.37,0,0,0-.41-.27l-5.6.07h-.4l1.33-1c3.51-2.7,7-5.37,10.51-8.12a5.47,5.47,0,0,1,3-1.19c4.8-.45,9.59-1,14.38-1.49.14,0,.27-.05.41-.07Zm-21,10.65,0,.07.17,0c2.54,0,5.08-.06,7.61-.11a.8.8,0,0,0,.45-.2q4.74-4.38,9.45-8.77c.12-.1.22-.22.38-.37h-.21L28.28,19.5a.84.84,0,0,0-.4.17L17.77,27.45l-.21.2.19,0c1.11,0,2.22,0,3.33-.05a.65.65,0,0,0,.35-.13l7.4-4.88c.09-.06.19-.11.3-.19l.54.83Zm1,1.09c.36.9.69,1.74,1,2.57a.34.34,0,0,0,.26.18,19,19,0,0,0,2.78.4,10.6,10.6,0,0,0,9.5-5.28.59.59,0,0,0,0-.47c-.23-.64-.5-1.27-.75-1.91l-.21-.46c-.13.12-.23.19-.32.28L31.88,28.3a.92.92,0,0,1-.52.21c-1.25,0-2.5,0-3.75,0ZM23,31.6l-.06-.15c-.16,0-.33-.14-.47-.11a.3.3,0,0,0-.2.46.47.47,0,0,0,.43.19C22.81,32,22.88,31.74,23,31.6Z"></path></svg>