<svg xmlns="http://www.w3.org/2000/svg" id="Capa_1" data-name="Capa 1" viewBox="0 0 64.5 64.5"><defs><style>.cls-1{fill:#1f2936;}.cls-2{fill:#fff;}.cls-3{fill:#84bd2f;}</style></defs><title>ICON</title><circle class="cls-1" cx="32.46" cy="31.07" r="31.09"></circle><path class="cls-2" d="M11.53,16.27c2.76-.64,7,25.48,17.33,25.48,7.75,0,16-19.71,16-19.71s2.63-6.41,5.14-6.41c1.36,0-6.19,35.16-21.06,35.16-15.2,0-21.88-23.66-22.24-25.42S8.77,16.92,11.53,16.27Z"></path><path class="cls-2" d="M35.91,20.12c0,4-2.7,7.17-6.11,7.29s-6.11-3.27-6.11-7.29,2.74-7.3,6.11-7.3,6.11,3.27,6.11,7.3"></path><path class="cls-3" d="M35.82,47.6c0-1.74,0-3.48,0-5.21a2.9,2.9,0,0,1,2-2.83,3.7,3.7,0,0,1,1-.14H45c1.43,0,2.86,0,4.29,0a2.9,2.9,0,0,1,2.81,2,2.67,2.67,0,0,1,.13.73q0,4.31,0,8.61a.4.4,0,0,1-.12.27q-2.32,2.34-4.66,4.67a.47.47,0,0,1-.3.12h-8.5a2.82,2.82,0,0,1-2.71-2.2,3.44,3.44,0,0,1-.08-.78C35.82,51.07,35.82,49.33,35.82,47.6ZM44.06,41H39a1.5,1.5,0,0,0-1.58,1.58v10a2.11,2.11,0,0,0,.1.61,1.49,1.49,0,0,0,1.51,1h7.1c.34,0,.33,0,.35-.35a10.09,10.09,0,0,1,.1-1.65,2.82,2.82,0,0,1,2.62-2.09c.4,0,.79,0,1.18,0,.2,0,.27-.07.27-.27,0-2.41,0-4.81,0-7.22a1.76,1.76,0,0,0-.1-.6,1.46,1.46,0,0,0-1.48-1Z"></path><path class="cls-3" d="M43,50.61l-2.86-2.85a.91.91,0,0,1,.13-.16l.86-.86c.2-.19.2-.19.39,0L42.79,48l.16.13,3.69-3.72.7.75c.12.13.24.25.37.37s.13.19,0,.31l-3.81,3.81Z"></path></svg>