<svg xmlns="http://www.w3.org/2000/svg" id="Capa_1" data-name="Capa 1" viewBox="0 0 64.5 64.5"><defs><style>.cls-1{fill:#1f2936;}.cls-2{fill:#fff;}.cls-3{fill:#84bd2f;}</style></defs><title>ICON</title><circle class="cls-1" cx="32.41" cy="31.09" r="31.09"></circle><path class="cls-2" d="M15.33,16.3c2.76-.64,7,25.48,17.34,25.48,7.75,0,16-19.71,16-19.71s2.62-6.41,5.14-6.41c1.36,0-6.19,35.15-21.06,35.15-15.21,0-21.89-23.65-22.24-25.41S12.58,16.94,15.33,16.3Z"></path><path class="cls-2" d="M39.71,20.14c0,4-2.7,7.17-6.1,7.3s-6.11-3.27-6.11-7.3,2.73-7.29,6.11-7.29,6.1,3.27,6.1,7.29"></path><path class="cls-3" d="M38.2,38.88l-.27.19a6.92,6.92,0,0,1-3.49,2.13,5.39,5.39,0,0,1-.77.13c-.38.94-.78,1.9-1.18,2.89l-.32-.75-1-2.36a9.09,9.09,0,0,1-2.55-1.23,12.14,12.14,0,0,1-3-2.26l3.76,9.12c-.5-.05-.61.18-.58.58s0,1.08,0,1.62a1,1,0,0,1-.43.92,6.2,6.2,0,0,0,5.31,10.77,5.93,5.93,0,0,0,4.75-4.58,6.05,6.05,0,0,0-2-6.29,1.19,1.19,0,0,1-.34-.71c0-.75,0-1.5,0-2.23l-.56-.13,3.56-8.61A10.39,10.39,0,0,1,38.2,38.88Zm-.5,15.68a5.21,5.21,0,1,1-10.41,0,5.21,5.21,0,0,1,10.41,0Zm-2.11-7.29v1.87a6.37,6.37,0,0,0-6.19,0v-1.8l.13,0c.45.69,1.15.47,1.77.48h3.06c.37,0,.79.11.94-.42C35.31,47.32,35.46,47.31,35.59,47.27Z"></path><path class="cls-3" d="M28.1,54.55a4.4,4.4,0,0,1,8.79,0,4.4,4.4,0,1,1-8.79,0Zm.49,0a3.91,3.91,0,1,0,3.87-3.9A3.93,3.93,0,0,0,28.59,54.55Z"></path><path class="cls-3" d="M30.17,53.71a1.92,1.92,0,0,0,2.24-1.64c.36,1.11,1,1.78,2.23,1.55v.14c-.34.36-.84.67-1,1.1a4.38,4.38,0,0,0,.16,1.63A1.86,1.86,0,0,0,31,56.42,2.07,2.07,0,0,0,30.17,53.71Z"></path></svg>