<svg xmlns="http://www.w3.org/2000/svg" xmlns:xlink="http://www.w3.org/1999/xlink" id="Capa_1" data-name="Capa 1" viewBox="0 0 64.5 64.5"><defs><style>.cls-1{fill:#1f2936;}.cls-2{fill:none;}.cls-3{fill:#022441;}.cls-4{clip-path:url(#clip-path);}.cls-5{clip-path:url(#clip-path-2);}.cls-6{fill:#fff;}.cls-7{fill:#84bd2f;}</style><clipPath id="clip-path"><circle class="cls-1" cx="32.4" cy="31.09" r="31.09"></circle></clipPath><clipPath id="clip-path-2"><polygon class="cls-2" points="64.13 62.25 -0.96 66.29 -0.45 3.82 64.64 3.82 64.13 62.25"></polygon></clipPath></defs><title>ICON</title><circle class="cls-3" cx="32.1" cy="31.29" r="31.09"></circle><circle class="cls-1" cx="32.4" cy="31.09" r="31.09"></circle><g class="cls-4"><g class="cls-5"><path class="cls-6" d="M22.57,20.82C26.17,20,31.74,54,45.18,54c10.1,0,20.9-25.69,20.9-25.69S69.5,20,72.78,20c1.77,0-8.08,45.84-27.46,45.84-19.83,0-28.54-30.84-29-33.14S19,21.66,22.57,20.82Z"></path><path class="cls-6" d="M54.36,25.83c0,5.25-3.52,9.35-8,9.51-4.4,0-8-4.26-8-9.51s3.57-9.51,8-9.51,8,4.26,8,9.51"></path></g></g><path class="cls-7" d="M30.48,19.73A5.94,5.94,0,0,0,26,16.36l-.13,0h-1a.75.75,0,0,1-.16,0,3.39,3.39,0,0,0-2.26,1.36c-.78,1.06-1.59,2.1-2.41,3.13a66.21,66.21,0,0,1-6.31,6.87A75.15,75.15,0,0,1,7.41,33,18,18,0,0,0,6,34.19a3.27,3.27,0,0,0-1,1.87v1.37A6.16,6.16,0,0,0,9.64,42.3h1.84a.34.34,0,0,1,.11,0,3.27,3.27,0,0,0,1.82-1.17l3-3.88c.13-.17.27-.32.44-.53,0,.15.07.25.09.35l.69,2.56a.52.52,0,0,0,.48.42.49.49,0,0,0,.51-.36c.19-.47.38-.93.56-1.39l.14-.29,1.34,1c.22.18.45.29.72.1a.54.54,0,0,0,.16-.68c-.27-1-.53-2-.8-3-.16-.59-.31-1.18-.48-1.8l3.05.81,1.74.47c.27.07.53.09.71-.18a.58.58,0,0,0-.12-.72l-.28-.36-.76-1,.3-.14c.47-.19.94-.37,1.41-.57a.48.48,0,0,0,.32-.49.49.49,0,0,0-.35-.46L26,30.91l-2.57-.68-.28-.09c.46-.41.87-.8,1.3-1.16,1.78-1.43,3.58-2.83,5.34-4.27a4.11,4.11,0,0,0,.83-1,6.22,6.22,0,0,0,.39-1v-1.7A11.86,11.86,0,0,0,30.48,19.73ZM23,18.79A2.54,2.54,0,0,1,24,17.74a5.48,5.48,0,0,0,1.37,3.5l-1.43,1.41a4.23,4.23,0,0,1-.81-1.38A3.37,3.37,0,0,1,23,18.79ZM14.5,28.48a8.16,8.16,0,0,1,.88-.89,6.25,6.25,0,0,0,4.42,4.33,11.87,11.87,0,0,1-1.13,1,1.26,1.26,0,0,1-1.18,0,4.87,4.87,0,0,1-3.13-3.06A1.52,1.52,0,0,1,14.5,28.48Zm1.83,7.25c-1.18,1.48-2.38,3-3.51,4.47a2.76,2.76,0,0,1-2.77,1.12A5,5,0,0,1,6,36.82a2.56,2.56,0,0,1,1-2.2c2-1.59,4-3.2,6-4.8l.23-.18a5.67,5.67,0,0,0,1.63,2.85,5.47,5.47,0,0,0,2.9,1.59C17.24,34.65,16.77,35.18,16.33,35.73Zm3.19,1.07c-.4-.31-.73-.22-.93.26-.1.24-.19.48-.32.81-.08-.27-.13-.46-.19-.65-.11-.44-.23-.87-.34-1.31a.76.76,0,0,1,0-.26s.05-.06.07-.09L19.3,33.9l.92,3.44Zm4.86-5.25.09.08-.77.31a.52.52,0,0,0-.25.89,4.46,4.46,0,0,1,.46.7l-3.36-.89a1,1,0,0,1,.12-.17c.47-.47.94-.93,1.42-1.38a.27.27,0,0,1,.24-.08Zm.13-4q-1.73,1.48-3.39,3a1.17,1.17,0,0,1-.93.31,3.25,3.25,0,0,1-1.53-.55A5.39,5.39,0,0,1,16.58,28a3.45,3.45,0,0,1-.21-.84,1,1,0,0,1,.3-.84c1.58-1.79,3.13-3.6,4.69-5.4.14-.15.26-.32.41-.5a6.23,6.23,0,0,0,5.17,5.18C26.12,26.23,25.3,26.88,24.51,27.57Zm2.83-3.06a4.38,4.38,0,0,1-2.72-1.1l1.62-1.6c.43-.43.43-.6,0-1.07A4.47,4.47,0,0,1,25,17.94c0-.72,0-.62.57-.59a4.72,4.72,0,0,1,3.58,2.11,4.32,4.32,0,0,1,.83,2A2.5,2.5,0,0,1,27.34,24.51Z"></path></svg>